<svg width="644" height="200" viewBox="0 0 644 200" fill="none" xmlns="http://www.w3.org/2000/svg">
<g clip-path="url(#clip0_12_44)">
<path d="M151.871 85.8614C154.337 82.9014 153.937 78.5025 150.977 76.0357C148.017 73.569 143.618 73.9689 141.151 76.929L124.436 96.987C120.988 101.127 118.869 103.642 117.124 105.218C116.315 105.948 115.835 106.24 115.604 106.351C115.558 106.374 115.524 106.387 115.504 106.395C115.482 106.387 115.449 106.374 115.402 106.351C115.173 106.24 114.693 105.948 113.883 105.218C112.138 103.642 110.02 101.127 106.571 96.987L103.851 93.7228C100.795 90.0559 98.0406 86.7498 95.4676 84.4261C92.6685 81.8987 89.142 79.647 84.4955 79.647C79.8494 79.647 76.3232 81.8987 73.5238 84.4261C70.9508 86.7498 68.1962 90.0559 65.1408 93.7238L48.1283 114.139C45.6616 117.099 46.0615 121.498 49.0216 123.965C51.9817 126.431 56.381 126.031 58.8478 123.071L75.563 103.013C79.0122 98.8735 81.1304 96.3582 82.875 94.7824C83.6843 94.0521 84.1643 93.76 84.395 93.6494C84.4415 93.6261 84.475 93.6131 84.4955 93.6047C84.5169 93.6131 84.5504 93.6261 84.5969 93.6494C84.8267 93.76 85.3067 94.0521 86.116 94.7824C87.8611 96.3582 89.9792 98.8735 93.4285 103.013L96.1485 106.277C99.2043 109.944 101.959 113.25 104.532 115.574C107.331 118.101 110.857 120.354 115.504 120.354C120.15 120.354 123.676 118.101 126.476 115.574C129.049 113.25 131.803 109.944 134.858 106.277L151.871 85.8614Z" fill="black"/>
<path fill-rule="evenodd" clip-rule="evenodd" d="M99.466 1.35057e-06C77.9928 -9.16727e-05 61.1646 -0.000185052 48.0345 1.76512C34.5951 3.572 23.9902 7.34261 15.6664 15.6664C7.34261 23.9902 3.572 34.5951 1.76512 48.0345C-0.000185052 61.1646 -9.16727e-05 77.9928 1.35057e-06 99.466V100.534C-9.16727e-05 122.007 -0.000185052 138.835 1.76512 151.966C3.572 165.405 7.34261 176.01 15.6664 184.334C23.9902 192.658 34.5951 196.428 48.0345 198.235C61.1646 200 77.9928 200 99.466 200H100.534C122.007 200 138.835 200 151.966 198.235C165.405 196.428 176.01 192.658 184.334 184.334C192.658 176.01 196.428 165.405 198.235 151.966C200 138.835 200 122.007 200 100.534V99.466C200 77.9928 200 61.1646 198.235 48.0345C196.428 34.5951 192.658 23.9902 184.334 15.6664C176.01 7.34261 165.405 3.572 151.966 1.76512C138.835 -0.000185052 122.007 -9.16727e-05 100.534 1.35057e-06H99.466ZM25.533 25.533C30.8321 20.2339 38.0016 17.193 49.8938 15.5941C61.9866 13.9683 77.877 13.9535 100 13.9535C122.123 13.9535 138.013 13.9683 150.106 15.5941C161.998 17.193 169.167 20.2339 174.467 25.533C179.766 30.8321 182.807 38.0016 184.406 49.8938C186.032 61.9866 186.047 77.877 186.047 100C186.047 122.123 186.032 138.013 184.406 150.106C182.807 161.998 179.766 169.167 174.467 174.467C169.167 179.766 161.998 182.807 150.106 184.406C138.013 186.032 122.123 186.047 100 186.047C77.877 186.047 61.9866 186.032 49.8938 184.406C38.0016 182.807 30.8321 179.766 25.533 174.467C20.2339 169.167 17.193 161.998 15.5941 150.106C13.9683 138.013 13.9535 122.123 13.9535 100C13.9535 77.877 13.9683 61.9866 15.5941 49.8938C17.193 38.0016 20.2339 30.8321 25.533 25.533Z" fill="black"/>
</g>
<path d="M264.32 47.64H273.632C278.752 47.64 282.72 46.584 285.536 44.472C288.352 42.296 289.76 39.032 289.76 34.68C289.76 30.328 288.384 27.16 285.632 25.176C282.944 23.128 279.072 22.104 274.016 22.104C272.288 22.104 270.56 22.2 268.832 22.392C267.168 22.52 265.664 22.712 264.32 22.968V47.64ZM274.112 54.168H256.544V20.856C256.544 19.832 256.8 19.064 257.312 18.552C257.888 17.976 258.688 17.528 259.712 17.208C261.568 16.632 263.808 16.216 266.432 15.96C269.12 15.704 271.712 15.576 274.208 15.576C282.336 15.576 288.256 17.304 291.968 20.76C295.744 24.152 297.632 28.76 297.632 34.584C297.632 38.552 296.768 42.008 295.04 44.952C293.376 47.896 290.816 50.168 287.36 51.768C283.904 53.368 279.488 54.168 274.112 54.168ZM256.544 50.424H264.416V74.808C264.032 74.936 263.52 75.064 262.88 75.192C262.24 75.384 261.536 75.48 260.768 75.48C259.36 75.48 258.304 75.192 257.6 74.616C256.896 74.04 256.544 73.144 256.544 71.928V50.424ZM348.978 52.824C348.978 57.56 348.082 61.688 346.29 65.208C344.498 68.728 341.97 71.448 338.706 73.368C335.442 75.288 331.602 76.248 327.186 76.248C322.77 76.248 318.898 75.288 315.57 73.368C312.306 71.448 309.778 68.728 307.986 65.208C306.194 61.688 305.298 57.56 305.298 52.824C305.298 48.024 306.194 43.896 307.986 40.44C309.842 36.92 312.402 34.2 315.666 32.28C318.994 30.36 322.834 29.4 327.186 29.4C331.538 29.4 335.346 30.36 338.61 32.28C341.874 34.2 344.402 36.92 346.194 40.44C348.05 43.896 348.978 48.024 348.978 52.824ZM327.186 35.736C322.898 35.736 319.474 37.272 316.914 40.344C314.418 43.352 313.17 47.512 313.17 52.824C313.17 58.2 314.386 62.392 316.818 65.4C319.314 68.408 322.77 69.912 327.186 69.912C331.538 69.912 334.93 68.408 337.362 65.4C339.858 62.328 341.106 58.136 341.106 52.824C341.106 47.512 339.858 43.352 337.362 40.344C334.93 37.272 331.538 35.736 327.186 35.736ZM368.536 38.904V54.072H360.856V39.48C360.856 38.008 361.112 36.856 361.624 36.024C362.2 35.128 363.128 34.264 364.408 33.432C366.072 32.344 368.344 31.416 371.224 30.648C374.104 29.816 377.304 29.4 380.824 29.4C385.944 29.4 388.504 30.68 388.504 33.24C388.504 33.88 388.408 34.488 388.216 35.064C388.024 35.576 387.768 36.024 387.448 36.408C386.808 36.28 385.976 36.152 384.952 36.024C383.928 35.896 382.904 35.832 381.88 35.832C378.936 35.832 376.344 36.152 374.104 36.792C371.864 37.368 370.008 38.072 368.536 38.904ZM360.856 49.656L368.536 50.808V74.808C368.216 74.936 367.736 75.064 367.096 75.192C366.456 75.384 365.752 75.48 364.984 75.48C363.64 75.48 362.616 75.224 361.912 74.712C361.208 74.136 360.856 73.24 360.856 72.024V49.656ZM397.609 49.656H405.289V62.904C405.289 65.464 406.025 67.288 407.497 68.376C408.969 69.4 410.985 69.912 413.545 69.912C414.633 69.912 415.849 69.72 417.193 69.336C418.537 68.952 419.657 68.504 420.553 67.992C420.937 68.376 421.289 68.856 421.609 69.432C421.929 70.008 422.089 70.68 422.089 71.448C422.089 72.856 421.257 74.008 419.593 74.904C417.929 75.8 415.625 76.248 412.681 76.248C408.201 76.248 404.553 75.256 401.737 73.272C398.985 71.288 397.609 67.992 397.609 63.384V49.656ZM401.545 37.944V31.608H421.033C421.225 31.864 421.417 32.28 421.609 32.856C421.801 33.432 421.897 34.04 421.897 34.68C421.897 35.704 421.641 36.504 421.129 37.08C420.617 37.656 419.913 37.944 419.017 37.944H401.545ZM405.289 52.536H397.609V17.784C397.929 17.656 398.409 17.528 399.049 17.4C399.753 17.208 400.489 17.112 401.257 17.112C402.601 17.112 403.593 17.4 404.233 17.976C404.937 18.488 405.289 19.352 405.289 20.568V52.536ZM439.663 39.384V33.144H460.015C460.207 33.4 460.399 33.816 460.591 34.392C460.783 34.904 460.879 35.512 460.879 36.216C460.879 37.24 460.623 38.04 460.111 38.616C459.599 39.128 458.863 39.384 457.903 39.384H439.663ZM441.007 27.096V38.328H433.423V26.712C433.423 22.936 434.095 19.896 435.439 17.592C436.847 15.224 438.831 13.496 441.391 12.408C444.015 11.256 447.119 10.68 450.703 10.68C454.351 10.68 457.199 11.16 459.247 12.12C461.359 13.08 462.415 14.264 462.415 15.672C462.415 16.376 462.255 17.016 461.935 17.592C461.679 18.168 461.295 18.712 460.783 19.224C459.631 18.584 458.191 18.072 456.463 17.688C454.735 17.24 453.071 17.016 451.471 17.016C447.567 17.016 444.847 17.816 443.311 19.416C441.775 21.016 441.007 23.576 441.007 27.096ZM433.423 34.104H441.103V74.808C440.783 74.936 440.303 75.064 439.663 75.192C439.023 75.384 438.319 75.48 437.551 75.48C436.207 75.48 435.183 75.224 434.479 74.712C433.775 74.136 433.423 73.24 433.423 72.024V34.104ZM509.853 52.824C509.853 57.56 508.957 61.688 507.165 65.208C505.373 68.728 502.845 71.448 499.581 73.368C496.317 75.288 492.477 76.248 488.061 76.248C483.645 76.248 479.773 75.288 476.445 73.368C473.181 71.448 470.653 68.728 468.861 65.208C467.069 61.688 466.173 57.56 466.173 52.824C466.173 48.024 467.069 43.896 468.861 40.44C470.717 36.92 473.277 34.2 476.541 32.28C479.869 30.36 483.709 29.4 488.061 29.4C492.413 29.4 496.221 30.36 499.485 32.28C502.749 34.2 505.277 36.92 507.069 40.44C508.925 43.896 509.853 48.024 509.853 52.824ZM488.061 35.736C483.773 35.736 480.349 37.272 477.789 40.344C475.293 43.352 474.045 47.512 474.045 52.824C474.045 58.2 475.261 62.392 477.693 65.4C480.189 68.408 483.645 69.912 488.061 69.912C492.413 69.912 495.805 68.408 498.237 65.4C500.733 62.328 501.981 58.136 501.981 52.824C501.981 47.512 500.733 43.352 498.237 40.344C495.805 37.272 492.413 35.736 488.061 35.736ZM522.499 49.656L530.179 50.808V74.808C529.859 74.936 529.379 75.064 528.739 75.192C528.099 75.384 527.395 75.48 526.627 75.48C525.283 75.48 524.259 75.224 523.555 74.712C522.851 74.136 522.499 73.24 522.499 72.024V49.656ZM530.179 54.456L522.499 53.4V12.792C522.819 12.664 523.299 12.536 523.939 12.408C524.643 12.216 525.347 12.12 526.051 12.12C527.459 12.12 528.483 12.408 529.123 12.984C529.827 13.496 530.179 14.36 530.179 15.576V54.456ZM544.872 16.632C544.872 15.288 545.352 14.168 546.312 13.272C547.272 12.312 548.456 11.832 549.864 11.832C551.336 11.832 552.52 12.312 553.416 13.272C554.312 14.168 554.76 15.288 554.76 16.632C554.76 17.976 554.312 19.128 553.416 20.088C552.52 20.984 551.336 21.432 549.864 21.432C548.456 21.432 547.272 20.984 546.312 20.088C545.352 19.128 544.872 17.976 544.872 16.632ZM546.024 49.656H553.704V74.808C553.384 74.936 552.904 75.064 552.264 75.192C551.624 75.384 550.92 75.48 550.152 75.48C548.808 75.48 547.784 75.224 547.08 74.712C546.376 74.136 546.024 73.24 546.024 72.024V49.656ZM553.704 53.4H546.024V30.84C546.344 30.712 546.824 30.584 547.464 30.456C548.168 30.264 548.904 30.168 549.672 30.168C551.016 30.168 552.008 30.456 552.648 31.032C553.352 31.544 553.704 32.44 553.704 33.72V53.4ZM609.884 52.824C609.884 57.56 608.988 61.688 607.196 65.208C605.404 68.728 602.876 71.448 599.612 73.368C596.348 75.288 592.508 76.248 588.092 76.248C583.676 76.248 579.804 75.288 576.476 73.368C573.212 71.448 570.684 68.728 568.892 65.208C567.1 61.688 566.204 57.56 566.204 52.824C566.204 48.024 567.1 43.896 568.892 40.44C570.748 36.92 573.308 34.2 576.572 32.28C579.9 30.36 583.74 29.4 588.092 29.4C592.444 29.4 596.252 30.36 599.516 32.28C602.78 34.2 605.308 36.92 607.1 40.44C608.956 43.896 609.884 48.024 609.884 52.824ZM588.092 35.736C583.804 35.736 580.38 37.272 577.82 40.344C575.324 43.352 574.076 47.512 574.076 52.824C574.076 58.2 575.292 62.392 577.724 65.4C580.22 68.408 583.676 69.912 588.092 69.912C592.444 69.912 595.836 68.408 598.268 65.4C600.764 62.328 602.012 58.136 602.012 52.824C602.012 47.512 600.764 43.352 598.268 40.344C595.836 37.272 592.444 35.736 588.092 35.736ZM289.76 155.832C289.312 156.152 288.704 156.44 287.936 156.696C287.232 156.952 286.432 157.08 285.536 157.08C284.512 157.08 283.584 156.92 282.752 156.6C281.984 156.28 281.44 155.768 281.12 155.064C277.728 147.896 274.752 141.336 272.192 135.384C269.696 129.432 267.68 124.504 266.144 120.6H265.76C265.568 125.4 265.344 129.88 265.088 134.04C264.896 138.2 264.672 142.232 264.416 146.136C264.16 149.976 263.904 153.944 263.648 158.04C263.456 162.072 263.2 166.392 262.88 171C262.496 171.128 261.984 171.256 261.344 171.384C260.768 171.512 260.128 171.576 259.424 171.576C258.016 171.576 257.024 171.288 256.448 170.712C255.872 170.072 255.584 169.24 255.584 168.216C255.584 167.448 255.648 165.688 255.776 162.936C255.968 160.12 256.16 156.696 256.352 152.664C256.608 148.632 256.896 144.344 257.216 139.8C257.536 135.192 257.856 130.68 258.176 126.264C258.56 121.784 258.912 117.752 259.232 114.168C259.744 113.72 260.48 113.304 261.44 112.92C262.4 112.536 263.488 112.344 264.704 112.344C266.176 112.344 267.424 112.632 268.448 113.208C269.472 113.784 270.272 114.68 270.848 115.896C272.512 119.16 274.176 122.712 275.84 126.552C277.504 130.392 279.136 134.232 280.736 138.072C282.336 141.912 283.872 145.528 285.344 148.92H285.728C288.544 142.136 291.328 135.608 294.08 129.336C296.896 123.064 299.264 117.72 301.184 113.304C301.76 112.984 302.496 112.76 303.392 112.632C304.288 112.44 305.12 112.344 305.888 112.344C307.36 112.344 308.512 112.6 309.344 113.112C310.24 113.56 310.816 114.328 311.072 115.416C311.328 116.504 311.616 118.36 311.936 120.984C312.256 123.608 312.576 126.712 312.896 130.296C313.216 133.816 313.504 137.528 313.76 141.432C314.08 145.336 314.368 149.176 314.624 152.952C314.88 156.728 315.104 160.152 315.296 163.224C315.552 166.232 315.712 168.632 315.776 170.424C315.2 170.808 314.592 171.096 313.952 171.288C313.312 171.48 312.576 171.576 311.744 171.576C310.784 171.576 309.92 171.352 309.152 170.904C308.448 170.392 308.032 169.496 307.904 168.216C307.52 162.008 307.136 155.896 306.752 149.88C306.432 143.8 306.144 138.232 305.888 133.176C305.632 128.12 305.408 123.992 305.216 120.792H304.832C303.424 124.312 301.504 128.856 299.072 134.424C296.64 139.928 293.536 147.064 289.76 155.832ZM345.946 166.008C348.634 166.008 350.842 165.752 352.57 165.24C354.362 164.664 355.642 164.12 356.41 163.608V149.688L344.506 150.936C341.178 151.192 338.714 151.928 337.114 153.144C335.514 154.36 334.714 156.12 334.714 158.424C334.714 160.792 335.642 162.648 337.498 163.992C339.418 165.336 342.234 166.008 345.946 166.008ZM345.85 125.4C351.418 125.4 355.834 126.648 359.098 129.144C362.362 131.64 363.994 135.576 363.994 140.952V163.704C363.994 165.112 363.706 166.2 363.13 166.968C362.618 167.672 361.818 168.344 360.73 168.984C359.194 169.816 357.146 170.584 354.586 171.288C352.026 171.992 349.146 172.344 345.946 172.344C339.93 172.344 335.258 171.16 331.93 168.792C328.666 166.424 327.034 163 327.034 158.52C327.034 154.36 328.41 151.192 331.162 149.016C333.978 146.776 337.85 145.432 342.778 144.984L356.41 143.64V140.952C356.41 137.752 355.45 135.416 353.53 133.944C351.61 132.472 349.018 131.736 345.754 131.736C343.13 131.736 340.602 132.12 338.17 132.888C335.802 133.656 333.69 134.52 331.834 135.48C331.322 135.032 330.842 134.52 330.394 133.944C330.01 133.304 329.818 132.664 329.818 132.024C329.818 130.36 330.746 129.08 332.602 128.184C334.33 127.288 336.314 126.616 338.554 126.168C340.858 125.656 343.29 125.4 345.85 125.4ZM416.413 141.72V151.512H408.733V142.104C408.733 138.52 407.709 135.896 405.661 134.232C403.677 132.568 400.989 131.736 397.597 131.736C395.037 131.736 392.765 132.056 390.781 132.696C388.797 133.336 387.101 134.072 385.693 134.904V151.512H378.013V135.288C378.013 133.944 378.269 132.856 378.781 132.024C379.357 131.128 380.317 130.264 381.661 129.432C383.325 128.472 385.533 127.576 388.285 126.744C391.037 125.848 394.141 125.4 397.597 125.4C403.421 125.4 407.997 126.744 411.325 129.432C414.717 132.056 416.413 136.152 416.413 141.72ZM378.013 146.232H385.693V170.808C385.373 170.936 384.893 171.064 384.253 171.192C383.613 171.384 382.909 171.48 382.141 171.48C380.797 171.48 379.773 171.224 379.069 170.712C378.365 170.136 378.013 169.24 378.013 168.024V146.232ZM408.733 146.232H416.413V170.808C416.093 170.936 415.581 171.064 414.877 171.192C414.237 171.384 413.565 171.48 412.861 171.48C411.453 171.48 410.397 171.224 409.693 170.712C409.053 170.136 408.733 169.24 408.733 168.024V146.232ZM446.634 166.008C449.322 166.008 451.53 165.752 453.258 165.24C455.05 164.664 456.33 164.12 457.098 163.608V149.688L445.194 150.936C441.866 151.192 439.402 151.928 437.802 153.144C436.202 154.36 435.402 156.12 435.402 158.424C435.402 160.792 436.33 162.648 438.186 163.992C440.106 165.336 442.922 166.008 446.634 166.008ZM446.538 125.4C452.106 125.4 456.522 126.648 459.786 129.144C463.05 131.64 464.682 135.576 464.682 140.952V163.704C464.682 165.112 464.394 166.2 463.818 166.968C463.306 167.672 462.506 168.344 461.418 168.984C459.882 169.816 457.834 170.584 455.274 171.288C452.714 171.992 449.834 172.344 446.634 172.344C440.618 172.344 435.946 171.16 432.618 168.792C429.354 166.424 427.722 163 427.722 158.52C427.722 154.36 429.098 151.192 431.85 149.016C434.666 146.776 438.538 145.432 443.466 144.984L457.098 143.64V140.952C457.098 137.752 456.138 135.416 454.218 133.944C452.298 132.472 449.706 131.736 446.442 131.736C443.818 131.736 441.29 132.12 438.858 132.888C436.49 133.656 434.378 134.52 432.522 135.48C432.01 135.032 431.53 134.52 431.082 133.944C430.698 133.304 430.506 132.664 430.506 132.024C430.506 130.36 431.434 129.08 433.29 128.184C435.018 127.288 437.002 126.616 439.242 126.168C441.546 125.656 443.978 125.4 446.538 125.4ZM497.132 169.656C493.42 169.656 489.996 168.952 486.86 167.544C483.724 166.072 481.196 163.704 479.276 160.44C477.356 157.176 476.396 152.856 476.396 147.48C476.396 142.616 477.324 138.552 479.18 135.288C481.1 132.024 483.724 129.56 487.052 127.896C490.38 126.232 494.188 125.4 498.476 125.4C501.42 125.4 504.108 125.784 506.54 126.552C509.036 127.256 511.116 128.152 512.78 129.24C513.74 129.88 514.508 130.616 515.084 131.448C515.724 132.216 516.044 133.176 516.044 134.328V163.992H508.364V134.424C507.276 133.72 505.9 133.112 504.236 132.6C502.636 132.024 500.716 131.736 498.476 131.736C494.188 131.736 490.732 133.048 488.108 135.672C485.484 138.296 484.172 142.2 484.172 147.384C484.172 153.144 485.484 157.24 488.108 159.672C490.796 162.104 494.092 163.32 497.996 163.32C500.812 163.32 503.084 162.84 504.812 161.88C506.54 160.92 507.916 159.864 508.94 158.712L509.324 165.528C508.364 166.552 506.828 167.512 504.716 168.408C502.668 169.24 500.14 169.656 497.132 169.656ZM508.364 172.44V162.36H516.044V172.92C516.044 177.144 515.116 180.536 513.26 183.096C511.468 185.656 508.972 187.512 505.772 188.664C502.636 189.816 499.084 190.392 495.116 190.392C491.916 190.392 489.164 190.04 486.86 189.336C484.556 188.632 482.988 188.056 482.156 187.608C480.236 186.52 479.276 185.144 479.276 183.48C479.276 182.584 479.468 181.816 479.852 181.176C480.3 180.6 480.844 180.152 481.484 179.832C482.828 180.856 484.716 181.784 487.148 182.616C489.644 183.512 492.3 183.96 495.116 183.96C499.404 183.96 502.668 183.032 504.908 181.176C507.212 179.32 508.364 176.408 508.364 172.44ZM533.047 153.72L532.663 147.672L561.655 143.736C561.399 140.216 560.183 137.336 558.007 135.096C555.831 132.792 552.823 131.64 548.983 131.64C545.015 131.64 541.719 133.08 539.095 135.96C536.535 138.776 535.255 142.84 535.255 148.152V150.264C535.703 155.384 537.367 159.288 540.247 161.976C543.191 164.6 547.191 165.912 552.247 165.912C554.935 165.912 557.367 165.464 559.543 164.568C561.719 163.672 563.447 162.712 564.727 161.688C565.431 162.136 565.975 162.68 566.359 163.32C566.807 163.896 567.031 164.568 567.031 165.336C567.031 166.552 566.327 167.704 564.919 168.792C563.575 169.816 561.751 170.648 559.447 171.288C557.207 171.928 554.679 172.248 551.863 172.248C546.935 172.248 542.647 171.352 538.999 169.56C535.415 167.768 532.631 165.112 530.647 161.592C528.727 158.008 527.767 153.656 527.767 148.536C527.767 144.888 528.279 141.656 529.303 138.84C530.391 135.96 531.863 133.528 533.719 131.544C535.639 129.56 537.911 128.056 540.535 127.032C543.159 125.944 546.007 125.4 549.079 125.4C552.983 125.4 556.407 126.232 559.351 127.896C562.359 129.56 564.695 131.896 566.359 134.904C568.087 137.848 568.951 141.24 568.951 145.08C568.951 146.488 568.631 147.512 567.991 148.152C567.351 148.728 566.455 149.08 565.303 149.208L533.047 153.72ZM587.724 134.904V150.072H580.044V135.48C580.044 134.008 580.3 132.856 580.812 132.024C581.388 131.128 582.316 130.264 583.596 129.432C585.26 128.344 587.532 127.416 590.412 126.648C593.292 125.816 596.492 125.4 600.012 125.4C605.132 125.4 607.692 126.68 607.692 129.24C607.692 129.88 607.596 130.488 607.404 131.064C607.212 131.576 606.956 132.024 606.636 132.408C605.996 132.28 605.164 132.152 604.14 132.024C603.116 131.896 602.092 131.832 601.068 131.832C598.124 131.832 595.532 132.152 593.292 132.792C591.052 133.368 589.196 134.072 587.724 134.904ZM580.044 145.656L587.724 146.808V170.808C587.404 170.936 586.924 171.064 586.284 171.192C585.644 171.384 584.94 171.48 584.172 171.48C582.828 171.48 581.804 171.224 581.1 170.712C580.396 170.136 580.044 169.24 580.044 168.024V145.656Z" fill="black"/>
<defs>
<clipPath id="clip0_12_44">
<rect width="200" height="200" fill="white"/>
</clipPath>
</defs>
</svg>
